<svg width="375" height="471" viewBox="0 0 375 471" fill="none" xmlns="http://www.w3.org/2000/svg">
<path d="M25.5682 -7C34.0909 5.07069 29.8295 21.9697 0 29.2121" stroke="#F1DED0" stroke-opacity="0.29" stroke-width="0.5" stroke-linecap="round"/>
<path d="M59.6591 -7C75.284 11.106 85.2272 51.6636 0 69.0454" stroke="#F1DED0" stroke-opacity="0.29" stroke-width="0.5" stroke-linecap="round"/>
<path d="M144.887 -7C137.784 24.3838 99.7162 87.8757 4.26172 90.7726" stroke="#F1DED0" stroke-opacity="0.29" stroke-width="0.5" stroke-linecap="round"/>
<path d="M208.807 -7C197.443 26.7979 140.625 99.4635 4.26172 119.742" stroke="#F1DED0" stroke-opacity="0.29" stroke-width="0.5" stroke-linecap="round"/>
<path d="M285.511 -7C242.898 34.0404 151.704 116.121 127.841 116.121C103.977 116.121 32.6704 186.131 0 221.136" stroke="#F1DED0" stroke-opacity="0.29" stroke-width="0.5" stroke-linecap="round"/>
<path d="M370.738 -7C157.67 102.843 -181.534 352.224 166.193 471" stroke="#F1DED0" stroke-opacity="0.29" stroke-width="0.5" stroke-linecap="round"/>
<path d="M0 420.302C7.10227 435.994 28.9773 468.102 59.659 470.999" stroke="#F1DED0" stroke-opacity="0.29" stroke-width="0.5" stroke-linecap="round"/>
<path d="M375 36.4547C196.023 136.641 -55.3972 310.942 370.739 206.651" stroke="#F1DED0" stroke-opacity="0.29" stroke-width="0.5" stroke-linecap="round"/>
<path d="M370.739 72.667C269.887 129.399 89.4883 260.97 370.739 177.682" stroke="#F1DED0" stroke-opacity="0.29" stroke-width="0.5" stroke-linecap="round"/>
<path d="M370.738 232C198.863 248.899 -4.26155 326.151 221.59 471" stroke="#F1DED0" stroke-opacity="0.29" stroke-width="0.5" stroke-linecap="round"/>
<path d="M375 275.454C264.204 286.318 55.3976 297.182 247.159 467.379" stroke="#F1DED0" stroke-opacity="0.29" stroke-width="0.5" stroke-linecap="round"/>
<path d="M370.738 318.909C288.352 322.531 127.841 300.803 272.727 471" stroke="#F1DED0" stroke-opacity="0.29" stroke-width="0.5" stroke-linecap="round"/>
<path d="M370.739 351.5C316.761 359.949 204.545 322.53 302.557 470.999" stroke="#F1DED0" stroke-opacity="0.29" stroke-width="0.5" stroke-linecap="round"/>
<path d="M375 388.469C338.884 395.019 271.167 345.238 329.855 470.999" stroke="#F1DED0" stroke-opacity="0.29" stroke-width="0.5" stroke-linecap="round"/>
<path d="M362.216 471H370.739" stroke="#F1DED0" stroke-opacity="0.29" stroke-width="0.5" stroke-linecap="round"/>
</svg>
